<svg version="1.1" id="Capa_1" xmlns="http://www.w3.org/2000/svg" xmlns:xlink="http://www.w3.org/1999/xlink" x="0px" y="0px" viewBox="0 0 393 393" style="enable-background:new 0 0 393 393;" xml:space="preserve">
    <g>
        <path d="M114,181h-4v-35c0-4-3-7-7-7h-1v-71c0-3-2-5-4-7l-58-29c-2-1-5-1-7,0c-2,1-3,3-3,6v100h-1c-4,0-7,3-7,7v34h-4c-4,0-7,3-7,7v196c0,4,3,7,7,7h97c4,0,7,3,7,7v-196C121,185,118,181,114,181z M43,50l43,21v66h-43V50z M36,154h59v27H36V154z M107,378H24V196h83V378z"/>
        <path d="M377,304H133c-4,0-7,3-7,7s3,7,7,7h232l-2,3c-10,20-31,32-53,32H133c-4,0-7,3-7,7s3,7,7,7h179c27,0,53-16,65-41l7-14c1-2,1-5,0-7C382,305,380,304,377,304z"/>
        <path d="M116,55C144,29,181,15,219,15c83,0,151,68,151,151c0,45-20,87-54,116c-3,3-3,8-1,11c1,1,3,2,4,2c1,0,3-1,4-2c38-32,61-78,61-127C385,74,310,0,219,0c-43,0-83,21-109,55c-2,3-1,8,2,10c3,2,8,1,10-2C145,64,181,46,219,46z"/>
        <path d="M300,106L164,244c-3,3-3,8,0,11c1,1,2,2,3,2s2-1,3-2l102-102c3-3,3-8,0-11c-3-3-8-3-11,0L206,245z"/>
        <path d="M206,245c-3,3-3,8,0,11c1,1,2,2,3,2s2-1,3-2l103-103c3-3,3-8,0-11c-3-3-8-3-11,0L206,245z"/>
    </g>
</svg>
