<?xml version="1.0" encoding="UTF-8"?>
<svg  viewBox="0 0 200 200" xmlns="http://www.w3.org/2000/svg" xmlns:xlink="http://www.w3.org/1999/xlink" version="1.1">
	<g >
	  <path style="fill:#999;stroke:#919191;stroke-width:6;" d="m 32,160 a 12 12 0 0 1 -10,-14 l 14,-48 120,0 14,48 a 12 12 0 0 1 -10,14 z"/>
	  <path style="fill:#CDD; ;stroke:#919191;stroke-width:6;" d="m 36,98 0,-62 a 6,6 0 0 1 6,-6 l 108,0 a 6,6 0 0 1 6,6 l 0,62 z"/>
	  <path style="fill:#CACACA;" d="m 30,130 8,-28 116,0 8,28 z m 48,3 32,0 a 6,6 0 0 1 6,6 l 1,12 a 6,6 0 0 1 -6,6 l -36,0 a 6,6 0 0 1 -6,-6 l 1,-12  a 6,6 0 0 1 6,-6"/> 
	</g>
</svg>